<svg xmlns="http://www.w3.org/2000/svg" xmlns:xlink="http://www.w3.org/1999/xlink" viewBox="0 0 430 430" width="430" height="430" preserveAspectRatio="xMidYMid meet" style="width: 100%; height: 100%; transform: translate3d(0px, 0px, 0px); content-visibility: visible;"><defs><clipPath id="__lottie_element_2953"><rect width="430" height="430" x="0" y="0"/></clipPath><clipPath id="__lottie_element_2955"><path d="M0,0 L430,0 L430,430 L0,430z"/></clipPath></defs><g clip-path="url(#__lottie_element_2953)"><g clip-path="url(#__lottie_element_2955)" transform="matrix(1,0,0,1,0,0)" opacity="1" style="display: block;"><g transform="matrix(1,0,0,1,215,215)" opacity="1" style="display: block;"><g opacity="1" transform="matrix(1,0,0,1,0,0)"><path stroke-linecap="round" stroke-linejoin="round" fill-opacity="0" class="primary" stroke="rgb(18,19,49)" stroke-opacity="1" stroke-width="12" d=" M-60.262001037597656,0 C-60.262001037597656,88.43099975585938 -33.28200149536133,160.11900329589844 0,160.11900329589844 C33.28200149536133,160.11900329589844 60.262001037597656,88.43099975585938 60.262001037597656,0 C60.262001037597656,-88.43099975585938 33.28200149536133,-160.11900329589844 0,-160.11900329589844 C-33.28200149536133,-160.11900329589844 -60.262001037597656,-88.43099975585938 -60.262001037597656,0z"/></g></g><g transform="matrix(0.5,-0.8660253882408142,0.8660253882408142,0.5,215,215)" opacity="1" style="display: block;"><g opacity="1" transform="matrix(1,0,0,1,0,0)"><path stroke-linecap="round" stroke-linejoin="round" fill-opacity="0" class="primary" stroke="rgb(18,19,49)" stroke-opacity="1" stroke-width="12" d=" M-60.262001037597656,0 C-60.262001037597656,88.43099975585938 -33.28200149536133,160.11900329589844 0,160.11900329589844 C33.28200149536133,160.11900329589844 60.262001037597656,88.43099975585938 60.262001037597656,0 C60.262001037597656,-88.43099975585938 33.28200149536133,-160.11900329589844 0,-160.11900329589844 C-33.28200149536133,-160.11900329589844 -60.262001037597656,-88.43099975585938 -60.262001037597656,0z"/></g></g><g transform="matrix(-0.48480960726737976,-0.874619722366333,0.874619722366333,-0.48480960726737976,215,215)" opacity="1" style="display: block;"><g opacity="1" transform="matrix(1,0,0,1,0,0)"><path stroke-linecap="round" stroke-linejoin="round" fill-opacity="0" class="primary" stroke="rgb(18,19,49)" stroke-opacity="1" stroke-width="12" d=" M-60.262001037597656,0 C-60.262001037597656,88.43099975585938 -33.28200149536133,160.11900329589844 0,160.11900329589844 C33.28200149536133,160.11900329589844 60.262001037597656,88.43099975585938 60.262001037597656,0 C60.262001037597656,-88.43099975585938 33.28200149536133,-160.11900329589844 0,-160.11900329589844 C-33.28200149536133,-160.11900329589844 -60.262001037597656,-88.43099975585938 -60.262001037597656,0z"/></g></g><g transform="matrix(1,0,0,1,215,215)" opacity="1" style="display: block;"><g opacity="1" transform="matrix(1,0,0,1,0,0)"><path stroke-linecap="round" stroke-linejoin="round" fill-opacity="0" class="secondary" stroke="rgb(255,196,0)" stroke-opacity="1" stroke-width="12" d=" M-26.687000274658203,0 C-26.687000274658203,14.73900032043457 -14.73900032043457,26.687000274658203 0,26.687000274658203 C14.73900032043457,26.687000274658203 26.687000274658203,14.73900032043457 26.687000274658203,0 C26.687000274658203,-14.73900032043457 14.73900032043457,-26.687000274658203 0,-26.687000274658203 C-14.73900032043457,-26.687000274658203 -26.687000274658203,-14.73900032043457 -26.687000274658203,0z"/></g></g></g></g></svg>