<svg xmlns="http://www.w3.org/2000/svg" xmlns:xlink="http://www.w3.org/1999/xlink" viewBox="0 0 430 430" width="430" height="430" preserveAspectRatio="xMidYMid meet" style="width: 100%; height: 100%; transform: translate3d(0px, 0px, 0px); content-visibility: visible;"><defs><clipPath id="__lottie_element_2019"><rect width="430" height="430" x="0" y="0"/></clipPath><clipPath id="__lottie_element_2021"><path d="M0,0 L430,0 L430,430 L0,430z"/></clipPath></defs><g clip-path="url(#__lottie_element_2019)"><g clip-path="url(#__lottie_element_2021)" transform="matrix(1,0,0,1,0,0)" opacity="1" style="display: block;"><g transform="matrix(0.999999463558197,0.0010403681080788374,-0.0010403681080788374,0.999999463558197,215,215)" opacity="1" style="display: block;"><g opacity="1" transform="matrix(1,0,0,1,0,0)"><path stroke-linecap="round" stroke-linejoin="round" fill-opacity="0" class="primary" stroke="rgb(255,255,255)" stroke-opacity="1" stroke-width="12" d=" M-60.14509201049805,0 C-60.14509201049805,88.50460052490234 -33.217430114746094,160.25225830078125 0,160.25225830078125 C33.217430114746094,160.25225830078125 60.14509201049805,88.50460052490234 60.14509201049805,0 C60.14509201049805,-88.50460052490234 33.217430114746094,-160.25225830078125 0,-160.25225830078125 C-33.217430114746094,-160.25225830078125 -60.14509201049805,-88.50460052490234 -60.14509201049805,0z"/></g></g><g transform="matrix(0.4987981915473938,-0.8667181730270386,0.8667181730270386,0.4987981915473938,215,215)" opacity="1" style="display: block;"><g opacity="1" transform="matrix(1,0,0,1,0,0)"><path stroke-linecap="round" stroke-linejoin="round" fill-opacity="0" class="primary" stroke="rgb(255,255,255)" stroke-opacity="1" stroke-width="12" d=" M-60.073463439941406,0 C-60.073463439941406,88.54969787597656 -33.1778678894043,160.33389282226562 0,160.33389282226562 C33.1778678894043,160.33389282226562 60.073463439941406,88.54969787597656 60.073463439941406,0 C60.073463439941406,-88.54969787597656 33.1778678894043,-160.33389282226562 0,-160.33389282226562 C-33.1778678894043,-160.33389282226562 -60.073463439941406,-88.54969787597656 -60.073463439941406,0z"/></g></g><g transform="matrix(-0.48297935724258423,-0.8756317496299744,0.8756317496299744,-0.48297935724258423,215,215)" opacity="1" style="display: block;"><g opacity="1" transform="matrix(1,0,0,1,0,0)"><path stroke-linecap="round" stroke-linejoin="round" fill-opacity="0" class="primary" stroke="rgb(255,255,255)" stroke-opacity="1" stroke-width="12" d=" M-59.90841293334961,0 C-59.90841293334961,88.65360260009766 -33.086708068847656,160.5220184326172 0,160.5220184326172 C33.086708068847656,160.5220184326172 59.90841293334961,88.65360260009766 59.90841293334961,0 C59.90841293334961,-88.65360260009766 33.086708068847656,-160.5220184326172 0,-160.5220184326172 C-33.086708068847656,-160.5220184326172 -59.90841293334961,-88.65360260009766 -59.90841293334961,0z"/></g></g><g transform="matrix(1,0,0,1,215,215)" opacity="1" style="display: block;"><g opacity="1" transform="matrix(1,0,0,1,0,0)"><path stroke-linecap="round" stroke-linejoin="round" fill-opacity="0" class="secondary" stroke="rgb(255,196,0)" stroke-opacity="1" stroke-width="12" d=" M-26.664302825927734,0 C-26.664302825927734,14.72646427154541 -14.72646427154541,26.664302825927734 0,26.664302825927734 C14.72646427154541,26.664302825927734 26.664302825927734,14.72646427154541 26.664302825927734,0 C26.664302825927734,-14.72646427154541 14.72646427154541,-26.664302825927734 0,-26.664302825927734 C-14.72646427154541,-26.664302825927734 -26.664302825927734,-14.72646427154541 -26.664302825927734,0z"/></g></g></g></g></svg>