<svg xmlns="http://www.w3.org/2000/svg" xmlns:xlink="http://www.w3.org/1999/xlink" viewBox="0 0 430 430" width="430" height="430" preserveAspectRatio="xMidYMid meet" style="width: 100%; height: 100%; transform: translate3d(0px, 0px, 0px); content-visibility: visible;"><defs><clipPath id="__lottie_element_2622"><rect width="430" height="430" x="0" y="0"/></clipPath><clipPath id="__lottie_element_2624"><path d="M0,0 L430,0 L430,430 L0,430z"/></clipPath><g id="__lottie_element_2631"><g transform="matrix(1,0,0,1,-35,-35)" opacity="1" style="display: block;"><path fill="rgb(255,0,0)" fill-opacity="1" d=" M123.73,423.46 C123.73,423.46 272.74,423.46 272.74,423.46 C279.34,423.46 284.74,418.06 284.74,411.46 C284.74,411.46 284.74,171.63 284.74,171.63 C284.74,165.03 279.34,159.63 272.74,159.63 C272.74,159.63 123.73,159.63 123.73,159.63 C117.13,159.63 111.73,165.03 111.73,171.63 C111.73,171.63 111.73,411.46 111.73,411.46 C111.73,418.06 117.13,423.46 123.73,423.46z"/><g opacity="1" transform="matrix(1,0,0,1,246.4669952392578,377.072998046875)"/></g></g><filter id="__lottie_element_2637" filterUnits="objectBoundingBox" x="0%" y="0%" width="100%" height="100%"><feComponentTransfer in="SourceGraphic"><feFuncA type="table" tableValues="1.0 0.0"/></feComponentTransfer></filter><mask id="__lottie_element_2631_2" mask-type="alpha"><g filter="url(#__lottie_element_2637)"><rect width="430" height="430" x="0" y="0" fill="#ffffff" opacity="0"/><use xmlns:ns1="http://www.w3.org/1999/xlink" ns1:href="#__lottie_element_2631"/></g></mask></defs><g clip-path="url(#__lottie_element_2622)"><g clip-path="url(#__lottie_element_2624)" transform="matrix(1,0,0,1,0,0)" opacity="1" style="display: block;"><g mask="url(#__lottie_element_2631_2)" style="display: block;"><g transform="matrix(0.7431448101997375,0.6691306233406067,-0.6691306233406067,0.7431448101997375,159.6563720703125,-280.99560546875)" opacity="1"><g opacity="1" transform="matrix(1,0,0,1,282.10198974609375,226.98300170898438)"><path stroke-linecap="round" stroke-linejoin="round" fill-opacity="0" class="secondary" stroke="rgb(255,196,0)" stroke-opacity="1" stroke-width="12" d=" M96.63899993896484,107.81999969482422 C96.63899993896484,107.81999969482422 67.60099792480469,68.6520004272461 67.60099792480469,68.6520004272461 C66.2750015258789,66.86299896240234 66.2770004272461,64.41600036621094 67.60600280761719,62.630001068115234 C67.60600280761719,62.630001068115234 96.71600341796875,23.514999389648438 96.71600341796875,23.514999389648438 C98.73699951171875,20.798999786376953 102.80699920654297,20.802000045776367 104.822998046875,23.52199935913086 C104.822998046875,23.52199935913086 133.86099243164062,62.689998626708984 133.86099243164062,62.689998626708984 C135.18699645996094,64.47899627685547 135.18499755859375,66.9260025024414 133.8560028076172,68.71199798583984 C133.8560028076172,68.71199798583984 104.74600219726562,107.8270034790039 104.74600219726562,107.8270034790039 C102.7249984741211,110.54299926757812 98.65499877929688,110.54000091552734 96.63899993896484,107.81999969482422z"/></g><g opacity="1" transform="matrix(1,0,0,1,0,0)"><g opacity="1" transform="matrix(1,0,0,1,267.18499755859375,317.4949951171875)"><path stroke-linecap="round" stroke-linejoin="round" fill-opacity="0" class="primary" stroke="rgb(0,0,0)" stroke-opacity="1" stroke-width="12" d=" M41.02399826049805,107.00599670410156 C41.02399826049805,107.00599670410156 190.03199768066406,107.14099884033203 190.03199768066406,107.14099884033203 C196.6320037841797,107.14700317382812 202.03700256347656,101.75199890136719 202.04299926757812,95.1520004272461 C202.04299926757812,95.1520004272461 202.26100158691406,-144.6790008544922 202.26100158691406,-144.6790008544922 C202.26699829101562,-151.2790069580078 196.8719940185547,-156.6840057373047 190.27200317382812,-156.69000244140625 C190.27200317382812,-156.69000244140625 41.263999938964844,-156.8249969482422 41.263999938964844,-156.8249969482422 C34.66400146484375,-156.83099365234375 29.259000778198242,-151.43600463867188 29.253000259399414,-144.83599853515625 C29.253000259399414,-144.83599853515625 29.03499984741211,94.99500274658203 29.03499984741211,94.99500274658203 C29.02899932861328,101.59500122070312 34.42399978637695,107 41.02399826049805,107.00599670410156z M57.2599983215332,-110.5479965209961 C57.2599983215332,-110.5479965209961 58.347999572753906,-131.81700134277344 58.347999572753906,-131.81700134277344 C58.347999572753906,-131.81700134277344 78.43199920654297,-131.7989959716797 78.43199920654297,-131.7989959716797 M57.244998931884766,-93.71199798583984 C59.56100082397461,-91.10299682617188 62.94200134277344,-89.4530029296875 66.7030029296875,-89.44999694824219 C73.7020034790039,-89.44400024414062 79.37699890136719,-95.11299896240234 79.38300323486328,-102.10700225830078 C79.38899993896484,-109.10600280761719 73.7249984741211,-114.78099822998047 66.72599792480469,-114.78700256347656 C62.96500015258789,-114.79000091552734 59.58100128173828,-113.1520004272461 57.2599983215332,-110.5469970703125 M174.8699951171875,60.64799880981445 C174.8699951171875,60.64799880981445 173.78199768066406,81.91699981689453 173.78199768066406,81.91699981689453 C173.78199768066406,81.91699981689453 153.697998046875,81.89900207519531 153.697998046875,81.89900207519531 M174.88499450683594,43.8120002746582 C172.56900024414062,41.202999114990234 169.18800354003906,39.553001403808594 165.427001953125,39.54999923706055 C158.42799377441406,39.54399871826172 152.7530059814453,45.2130012512207 152.7469940185547,52.207000732421875 C152.74099731445312,59.20600128173828 158.40499877929688,64.88099670410156 165.4040069580078,64.88700103759766 C169.1649932861328,64.88999938964844 172.5489959716797,63.25299835205078 174.8699951171875,60.64799880981445"/></g></g></g></g><g transform="matrix(1,0,0,1,-35,-35)" opacity="1" style="display: block;"><g opacity="1" transform="matrix(1,0,0,1,198.23199462890625,291.5469970703125)"><path stroke-linecap="round" stroke-linejoin="round" fill-opacity="0" class="secondary" stroke="rgb(255,196,0)" stroke-opacity="1" stroke-width="12" d=" M-4.053999900817871,42.15299987792969 C-4.053999900817871,42.15299987792969 -33.12699890136719,3.010999917984009 -33.12699890136719,3.010999917984009 C-34.45500183105469,1.2230000495910645 -34.45500183105469,-1.2230000495910645 -33.12699890136719,-3.010999917984009 C-33.12699890136719,-3.010999917984009 -4.053999900817871,-42.15299987792969 -4.053999900817871,-42.15299987792969 C-2.0350000858306885,-44.87099838256836 2.0350000858306885,-44.87099838256836 4.053999900817871,-42.15299987792969 C4.053999900817871,-42.15299987792969 33.12699890136719,-3.010999917984009 33.12699890136719,-3.010999917984009 C34.45500183105469,-1.2230000495910645 34.45500183105469,1.2230000495910645 33.12699890136719,3.010999917984009 C33.12699890136719,3.010999917984009 4.053999900817871,42.15299987792969 4.053999900817871,42.15299987792969 C2.0350000858306885,44.87099838256836 -2.0350000858306885,44.87099838256836 -4.053999900817871,42.15299987792969z"/></g><g opacity="1" transform="matrix(1,0,0,1,246.4669952392578,377.072998046875)"><path stroke-linecap="round" stroke-linejoin="round" fill-opacity="0" class="primary" stroke="rgb(0,0,0)" stroke-opacity="1" stroke-width="12" d=" M-122.73799896240234,46.388999938964844 C-122.73799896240234,46.388999938964844 26.270000457763672,46.388999938964844 26.270000457763672,46.388999938964844 C32.869998931884766,46.388999938964844 38.27000045776367,40.98899841308594 38.27000045776367,34.388999938964844 C38.27000045776367,34.388999938964844 38.27000045776367,-205.44200134277344 38.27000045776367,-205.44200134277344 C38.27000045776367,-212.04200744628906 32.869998931884766,-217.44200134277344 26.270000457763672,-217.44200134277344 C26.270000457763672,-217.44200134277344 -122.73799896240234,-217.44200134277344 -122.73799896240234,-217.44200134277344 C-129.33799743652344,-217.44200134277344 -134.73800659179688,-212.04200744628906 -134.73800659179688,-205.44200134277344 C-134.73800659179688,-205.44200134277344 -134.73800659179688,34.388999938964844 -134.73800659179688,34.388999938964844 C-134.73800659179688,40.98899841308594 -129.33799743652344,46.388999938964844 -122.73799896240234,46.388999938964844z M-85.14299774169922,-150.08999633789062 C-85.14299774169922,-150.08999633789062 -110.5739974975586,-150.08999633789062 -110.5739974975586,-150.08999633789062 C-110.5739974975586,-150.08999633789062 -89.47599792480469,-175.4709930419922 -89.47599792480469,-175.4709930419922 C-88.11499786376953,-177.25 -87.30000305175781,-179.47300720214844 -87.30000305175781,-181.88900756835938 C-87.30000305175781,-187.7239990234375 -92.0260009765625,-192.4499969482422 -97.86100006103516,-192.4499969482422 C-103.69000244140625,-192.4499969482422 -108.41600036621094,-187.7239990234375 -108.41600036621094,-181.88900756835938 M-12.71500015258789,-21.18000030517578 C-12.71500015258789,-21.18000030517578 12.71500015258789,-21.18000030517578 12.71500015258789,-21.18000030517578 C12.71500015258789,-21.18000030517578 -8.383000373840332,4.201000213623047 -8.383000373840332,4.201000213623047 C-9.744000434875488,5.980000019073486 -10.557999610900879,8.20300006866455 -10.557999610900879,10.619000434875488 C-10.557999610900879,16.45400047302246 -5.833000183105469,21.18000030517578 0.0020000000949949026,21.18000030517578 C5.830999851226807,21.18000030517578 10.557000160217285,16.45400047302246 10.557000160217285,10.619000434875488"/></g></g></g></g></svg>